<?xml version="1.0" encoding="iso-8859-1"?>
<!-- Generator: Adobe Illustrator 19.0.0, SVG Export Plug-In . SVG Version: 6.00 Build 0)  -->
<svg version="1.1" id="Layer_1" xmlns="http://www.w3.org/2000/svg" xmlns:xlink="http://www.w3.org/1999/xlink" x="0px" y="0px"
	 viewBox="0 0 496 496" style="enable-background:new 0 0 496 496;" xml:space="preserve">
<g>
	<g>
		<g>
			<path d="M256,304.072V192h232l-54-72l54-72H256v-1.472c9.288-3.312,16-12.112,16-22.528c0-13.232-10.768-24-24-24
				s-24,10.768-24,24c0,10.416,6.712,19.216,16,22.528V304.08C104.792,305.664,0,347.208,0,400c0,53.832,108.936,96,248,96
				s248-42.168,248-96C496,347.208,391.208,305.664,256,304.072z M456,64l-42,56l42,56H256V64H456z M248,16c4.408,0,8,3.592,8,8
				s-3.592,8-8,8c-4.408,0-8-3.592-8-8S243.592,16,248,16z M256,408v-55.864c99.28,1.4,160,28.344,160,47.864
				c0,20.04-63.912,48-168,48S80,420.04,80,400c0-19.52,60.72-46.464,160-47.864V408H256z M248,480c-138.776,0-232-41.368-232-80
				c0-37.88,89.672-78.368,224-79.928v15.992C153.224,337.36,64,359.672,64,400c0,41.568,94.8,64,184,64s184-22.432,184-64
				c0-40.328-89.224-62.64-176-63.936v-15.992c134.328,1.56,224,42.048,224,79.928C480,438.632,386.776,480,248,480z"/>
			<rect x="272" y="144" width="16" height="16"/>
			<rect x="304" y="144" width="16" height="16"/>
			<rect x="336" y="144" width="16" height="16"/>
		</g>
	</g>
</g>
<g>
</g>
<g>
</g>
<g>
</g>
<g>
</g>
<g>
</g>
<g>
</g>
<g>
</g>
<g>
</g>
<g>
</g>
<g>
</g>
<g>
</g>
<g>
</g>
<g>
</g>
<g>
</g>
<g>
</g>
</svg>
